<svg preserveAspectRatio="none" overflow="visible" style="display: block;" width="20.0007" height="20.0007" viewBox="0 0 20.0007 20.0007" fill="none" xmlns="http://www.w3.org/2000/svg">
<path id="Icon" d="M1 3.50072C1 12.0611 7.93959 19.0007 16.5 19.0007C16.8862 19.0007 17.2691 18.9866 17.6483 18.9588C18.0834 18.927 18.3009 18.911 18.499 18.797C18.663 18.7026 18.8185 18.5352 18.9007 18.3647C19 18.1589 19 17.9188 19 17.4387V14.6214C19 14.2176 19 14.0158 18.9335 13.8427C18.8749 13.6898 18.7795 13.5537 18.6559 13.4463C18.516 13.3247 18.3262 13.2557 17.9468 13.1177L14.74 11.9516C14.2985 11.7911 14.0777 11.7108 13.8683 11.7244C13.6836 11.7364 13.5059 11.7995 13.3549 11.9065C13.1837 12.0279 13.0629 12.2293 12.8212 12.6321L12 14.0007C9.35014 12.8006 7.2019 10.6496 6 8.00072L7.36863 7.17954C7.77145 6.93785 7.97286 6.817 8.09423 6.64578C8.20125 6.4948 8.26427 6.31708 8.27629 6.13241C8.28992 5.92298 8.20965 5.70224 8.04911 5.26076L6.88299 2.05393C6.745 1.67448 6.67601 1.48475 6.55442 1.34481C6.44701 1.2212 6.31089 1.12586 6.15802 1.06717C5.98496 1.00072 5.78308 1.00072 5.37932 1.00072H2.56201C2.08188 1.00072 1.84181 1.00072 1.63598 1.09997C1.4655 1.18217 1.29814 1.33773 1.2037 1.50175C1.08968 1.69978 1.07375 1.91733 1.04189 2.35244C1.01413 2.73157 1 3.1145 1 3.50072Z" stroke="#010101" stroke-width="2" stroke-linecap="round" stroke-linejoin="round"/>
</svg>
